<?xml version="1.0" encoding="utf-8"?>
<!-- Generator: Adobe Illustrator 24.2.0, SVG Export Plug-In . SVG Version: 6.00 Build 0)  -->
<svg version="1.1" id="Layer_1" xmlns="http://www.w3.org/2000/svg" xmlns:xlink="http://www.w3.org/1999/xlink" x="0px" y="0px"
	 viewBox="0 0 500 500" style="enable-background:new 0 0 500 500;" xml:space="preserve">
<style type="text/css">
	.st0{fill:#F9D953;}
	.st1{fill:#D8D8D8;}
	.st2{fill:#3673D6;}
	.st3{fill:#FEFEFE;}
	.st4{fill:#E90101;}
	.st5{fill:#010101;}
	.st6{fill:none;stroke:#FF0000;stroke-width:6.5102;stroke-miterlimit:10;}
</style>
<rect x="23" y="365.1" class="st0" width="245" height="58"/>
<rect x="154" y="242.2" class="st1" width="323" height="9.4"/>
<rect x="160.8" y="250" transform="matrix(0.9973 -7.340001e-02 7.340001e-02 0.9973 -19.8597 12.7791)" class="st1" width="6.2" height="53.1"/>
<path class="st1" d="M345.1,189.9H157.3c-1.8,0-3.3,1.5-3.3,3.3v48.8c0,1.8,1.5,3.3,3.3,3.3h187.8c1.8,0,3.3-1.5,3.3-3.3v-48.8
	C348.4,191.3,346.9,189.9,345.1,189.9z"/>
<polyline class="st1" points="347.4,189.9 410.3,245.2 347.4,245.2 "/>
<rect x="386.3" y="242.2" class="st1" width="6.2" height="117.3"/>
<rect x="238.9" y="160.5" class="st2" width="53.6" height="29.3"/>
<path class="st2" d="M286.6,114.8h-42c-5.4,0-9.7,4.3-9.7,9.7v36.3c0,5.4,4.3,9.7,9.7,9.7h42c5.4,0,9.7-4.3,9.7-9.7v-36.3
	C296.3,119.1,292,114.8,286.6,114.8z"/>
<rect x="202.7" y="40.2" transform="matrix(0.7071 -0.7071 0.7071 0.7071 -8.5798 188.9494)" class="st2" width="42.1" height="129.3"/>
<rect x="210.6" y="100.7" transform="matrix(0.7071 -0.7071 0.7071 0.7071 -13.1933 200.0873)" class="st2" width="48.6" height="30.5"/>
<g>
	<g>
		<path class="st3" d="M238.9,346.2c-11.1,0-22.3,0-33.4,0c-0.4,0-0.4-0.1-0.4-0.4c0-19.5,0-39,0-58.5c0-0.4,0.1-0.4,0.4-0.4
			c22.3,0,44.6,0,66.9,0c0.4,0,0.4,0.1,0.4,0.4c0,19.5,0,39,0,58.5c0,0.4-0.1,0.4-0.4,0.4C261.2,346.2,250.1,346.2,238.9,346.2z
			 M238.9,345.3c9.9,0,19.9,0,29.8,0c2.4,0,3.7-2.3,2.5-4.3c-1.5-2.4-2.9-5-4.3-7.4c-8.5-14.7-16.9-29.3-25.4-44
			c-0.2-0.4-0.5-0.8-0.9-1.1c-1.4-1.1-3.1-0.6-4.1,1c-7.1,12.3-14.2,24.5-21.2,36.8c-2.9,4.9-5.7,9.9-8.6,14.8
			c-0.4,0.6-0.6,1.3-0.4,2.1c0.3,1.4,1.3,2.2,2.9,2.2C219.1,345.3,229,345.3,238.9,345.3z"/>
		<path class="st4" d="M238.9,345.3c-9.9,0-19.8,0-29.7,0c-1.6,0-2.6-0.8-2.9-2.2c-0.2-0.7,0.1-1.4,0.4-2.1
			c2.9-4.9,5.7-9.9,8.6-14.8c7.1-12.3,14.2-24.5,21.2-36.8c1-1.7,2.7-2.1,4.1-1c0.4,0.3,0.6,0.7,0.9,1.1c8.5,14.7,16.9,29.3,25.4,44
			c1.4,2.5,2.8,5,4.3,7.4c1.3,2-0.1,4.3-2.5,4.3C258.8,345.3,248.9,345.3,238.9,345.3z M262.7,339c-7.9-13.7-15.8-27.3-23.7-41
			c-7.9,13.7-15.8,27.3-23.7,41C231.1,339,246.8,339,262.7,339z"/>
		<path class="st3" d="M262.7,339c-15.8,0-31.6,0-47.4,0c7.9-13.7,15.8-27.3,23.7-41C246.9,311.6,254.8,325.3,262.7,339z
			 M235.7,311.2c0.3,4.1,0.6,8.2,0.9,12.2c0.1,1,0.2,2,0.6,3c0.3,0.9,0.9,1.2,1.9,1.2c1,0,1.5-0.3,1.8-1.2c0.3-0.8,0.5-1.7,0.5-2.6
			c0.2-2.7,0.4-5.5,0.6-8.2c0.1-1.9,0.3-3.8,0.3-5.6c-0.1-1.6-1.3-2.9-2.9-3c-1.8-0.1-3.2,0.8-3.5,2.5
			C235.7,310,235.7,310.6,235.7,311.2z M239,330c-1.8,0-3.3,1.5-3.3,3.3c0,1.8,1.5,3.3,3.3,3.3c1.8,0,3.3-1.5,3.3-3.3
			C242.3,331.6,240.8,330.1,239,330z"/>
		<path class="st5" d="M235.7,311.2c0.1-0.6,0-1.2,0.1-1.8c0.4-1.7,1.7-2.7,3.5-2.5c1.6,0.1,2.8,1.4,2.9,3c0.1,1.9-0.1,3.8-0.3,5.6
			c-0.2,2.7-0.4,5.5-0.6,8.2c-0.1,0.9-0.2,1.8-0.5,2.6c-0.3,0.9-0.8,1.2-1.8,1.2c-1,0-1.5-0.3-1.9-1.2c-0.4-1-0.5-2-0.6-3
			C236.3,319.3,236,315.3,235.7,311.2z"/>
		<path class="st5" d="M239,330c1.8,0,3.3,1.5,3.3,3.3c0,1.8-1.5,3.3-3.3,3.3c-1.8,0-3.3-1.5-3.3-3.3C235.7,331.5,237.2,330,239,330
			z"/>
	</g>
</g>
<polyline class="st6" points="158.2,326 136,286.8 132.9,312.7 110.5,311.3 117.1,325.2 96.6,334.9 111.8,344.6 91,354.5 
	130.5,354.3 "/>
<rect x="176.8" y="304" transform="matrix(0.866 -0.5 0.5 0.866 -141.176 134.2418)" class="st1" width="6.2" height="53.1"/>
</svg>
