<?xml version="1.0" encoding="utf-8"?>
<!-- Generator: Adobe Illustrator 24.2.0, SVG Export Plug-In . SVG Version: 6.00 Build 0)  -->
<svg version="1.1" id="Layer_1" xmlns="http://www.w3.org/2000/svg" xmlns:xlink="http://www.w3.org/1999/xlink" x="0px" y="0px"
	 viewBox="0 0 403.5 403.6" style="enable-background:new 0 0 403.5 403.6;" xml:space="preserve">
<style type="text/css">
	.st0{fill:#333333;}
	.st1{fill:#F2E355;}
	.st2{fill:#C9C9C9;}
	.st3{fill:#D8D8D8;}
	.st4{fill:#FF5050;}
</style>
<rect x="177.1" y="86.2" class="st0" width="199.4" height="294.1"/>
<rect x="184.3" y="93.3" class="st1" width="185.2" height="209"/>
<rect x="65.7" y="164.6" transform="matrix(0.7071 -0.7071 0.7071 0.7071 -121.5654 110.6831)" class="st2" width="14.2" height="75"/>
<rect x="66" y="207.9" transform="matrix(0.7071 0.7071 -0.7071 0.7071 194.9469 20.1396)" class="st2" width="14.2" height="75"/>
<rect x="116.1" y="163" transform="matrix(0.7071 -0.7071 0.7071 0.7071 -105.6632 145.8819)" class="st2" width="14.2" height="75"/>
<rect x="116.5" y="206.3" transform="matrix(0.7071 0.7071 -0.7071 0.7071 208.5916 -15.9942)" class="st2" width="14.2" height="75"/>
<rect x="184.5" y="342.3" class="st3" width="74" height="11"/>
<rect x="295.5" y="342.3" class="st3" width="74" height="11"/>
<rect x="184.5" y="359.3" class="st3" width="74" height="11"/>
<rect x="295.5" y="359.3" class="st3" width="74" height="11"/>
<rect x="184.5" y="307.3" class="st3" width="74" height="11"/>
<rect x="295.5" y="307.3" class="st3" width="74" height="11"/>
<rect x="184.5" y="324.3" class="st3" width="74" height="11"/>
<rect x="295.5" y="324.3" class="st3" width="74" height="11"/>
<rect x="207.5" y="124.3" class="st0" width="75" height="51"/>
<rect x="195.5" y="191.3" transform="matrix(-1.836970e-16 1 -1 -1.836970e-16 449.8679 -16.1999)" class="st0" width="75" height="51"/>
<rect x="263.5" y="203.3" transform="matrix(-1 -1.224647e-16 1.224647e-16 -1 602.0677 457.668)" class="st0" width="75" height="51"/>
<rect x="275.5" y="136.3" transform="matrix(6.123234e-17 -1 1 6.123234e-17 151.1998 474.8679)" class="st0" width="75" height="51"/>
<g>
	
		<rect x="265.3" y="151.3" transform="matrix(0.7071 -0.7071 0.7071 0.7071 -53.7211 247.9558)" class="st4" width="14.2" height="75"/>
	
		<rect x="265.3" y="151.3" transform="matrix(0.7071 0.7071 -0.7071 0.7071 213.3178 -137.3446)" class="st4" width="14.2" height="75"/>
</g>
</svg>
