<?xml version="1.0" encoding="utf-8"?>
<!-- Generator: Adobe Illustrator 24.2.0, SVG Export Plug-In . SVG Version: 6.00 Build 0)  -->
<svg version="1.1" id="Layer_1" xmlns="http://www.w3.org/2000/svg" xmlns:xlink="http://www.w3.org/1999/xlink" x="0px" y="0px"
	 viewBox="0 0 500 500" style="enable-background:new 0 0 500 500;" xml:space="preserve">
<style type="text/css">
	.st0{fill:#F9D953;}
	.st1{fill:#D8D8D8;}
	.st2{fill:#3673D6;}
	.st3{fill:none;stroke:#FF0000;stroke-width:6.5102;stroke-miterlimit:10;}
	.st4{fill:none;stroke:#FF0000;stroke-width:6;stroke-miterlimit:10;}
	.st5{fill:none;stroke:#FF0000;stroke-width:6;stroke-miterlimit:10;stroke-dasharray:10.0884,4.2035;}
	.st6{fill:#FF0000;}
	.st7{fill-rule:evenodd;clip-rule:evenodd;fill:#FF0019;}
	.st8{fill:#FFFFFF;}
	.st9{font-family:'IBMPlexSans-Bold';}
	.st10{font-size:46.5508px;}
	.st11{fill-rule:evenodd;clip-rule:evenodd;fill:none;stroke:#FF0019;stroke-width:4.79;stroke-miterlimit:10;}
</style>
<rect y="408.1" class="st0" width="211" height="61.6"/>
<rect x="175.1" y="215.2" class="st1" width="323" height="9.4"/>
<path class="st1" d="M366.2,162.9H178.4c-1.8,0-3.3,1.5-3.3,3.3v48.8c0,1.8,1.5,3.3,3.3,3.3h187.8c1.8,0,3.3-1.5,3.3-3.3v-48.8
	C369.5,164.3,368,162.9,366.2,162.9z"/>
<polyline class="st1" points="368.5,162.9 431.4,218.2 368.5,218.2 "/>
<rect x="407.4" y="215.2" class="st1" width="6.2" height="117.3"/>
<rect x="260" y="133.5" class="st2" width="53.6" height="29.3"/>
<path class="st2" d="M307.7,87.8h-42c-5.4,0-9.7,4.3-9.7,9.7v36.3c0,5.4,4.3,9.7,9.7,9.7h42c5.4,0,9.7-4.3,9.7-9.7V97.5
	C317.4,92.1,313.1,87.8,307.7,87.8z"/>
<rect x="223.9" y="13.1" transform="matrix(0.7071 -0.7071 0.7071 0.7071 16.7051 195.965)" class="st2" width="42.1" height="129.3"/>
<rect x="231.7" y="73.7" transform="matrix(0.7071 -0.7071 0.7071 0.7071 12.0916 207.1029)" class="st2" width="48.6" height="30.5"/>
<polyline class="st3" points="132.6,361.6 123.3,317.5 112.6,341.2 91.6,333.1 93.7,348.3 71.2,351.4 82.8,365.3 59.9,368.4 
	97.6,380.2 "/>
<rect x="175.1" y="218.2" class="st1" width="6.2" height="117.3"/>
<g>
	<g>
		<line class="st4" x1="137.4" y1="390.8" x2="140.8" y2="385.9"/>
		<line class="st5" x1="143.1" y1="382.4" x2="166.1" y2="348.7"/>
		<line class="st4" x1="167.3" y1="347" x2="170.7" y2="342"/>
		<g>
			<polygon class="st6" points="144.5,393.2 131.6,399.4 132.6,385.1 			"/>
		</g>
	</g>
</g>
<g>
	<polygon class="st7" points="335.6,288.3 279.9,288.3 240.6,327.7 240.6,383.4 279.9,422.7 335.6,422.7 375,383.4 375,327.7 	"/>
	<text transform="matrix(1 0 0 1 249.229 371.9805)" class="st8 st9 st10">STOP</text>
	<polygon class="st11" points="338.3,281.8 277.2,281.8 234,325 234,386.1 277.2,429.3 338.3,429.3 381.5,386.1 381.5,325 	"/>
</g>
</svg>
