<svg width="368" height="159" viewBox="0 0 368 159" fill="none" xmlns="http://www.w3.org/2000/svg">
<path d="M0 0H17V159H0V0Z" fill="#D9D9D9" fill-opacity="0.71"/>
<path d="M27 0H44V159H27V0Z" fill="#D9D9D9" fill-opacity="0.71"/>
<path d="M54 0H71V159H54V0Z" fill="#D9D9D9" fill-opacity="0.71"/>
<path d="M81 0H98V159H81V0Z" fill="#D9D9D9" fill-opacity="0.71"/>
<path d="M108 0H125V159H108V0Z" fill="#D9D9D9" fill-opacity="0.71"/>
<path d="M135 0H152V159H135V0Z" fill="#D9D9D9" fill-opacity="0.71"/>
<path d="M162 0H179V159H162V0Z" fill="#D9D9D9" fill-opacity="0.71"/>
<path d="M189 0H206V159H189V0Z" fill="#D9D9D9" fill-opacity="0.71"/>
<path d="M216 0H233V159H216V0Z" fill="#D9D9D9" fill-opacity="0.71"/>
<path d="M243 0H260V159H243V0Z" fill="#D9D9D9" fill-opacity="0.71"/>
<path d="M270 0H287V159H270V0Z" fill="#D9D9D9" fill-opacity="0.71"/>
<path d="M297 0H314V159H297V0Z" fill="#D9D9D9" fill-opacity="0.71"/>
<path d="M324 0H341V159H324V0Z" fill="#D9D9D9" fill-opacity="0.71"/>
<path d="M351 0H368V159H351V0Z" fill="#D9D9D9" fill-opacity="0.71"/>
</svg>
