<?xml version="1.0" encoding="utf-8"?>
<!-- Generator: Adobe Illustrator 24.2.0, SVG Export Plug-In . SVG Version: 6.00 Build 0)  -->
<svg version="1.1" id="Layer_1" xmlns="http://www.w3.org/2000/svg" xmlns:xlink="http://www.w3.org/1999/xlink" x="0px" y="0px"
	 viewBox="0 0 596.8 249.5" style="enable-background:new 0 0 596.8 249.5;" xml:space="preserve">
<style type="text/css">
	.st0{fill:#B0B0B0;}
</style>
<rect x="316.3" y="62.2" class="st0" width="245" height="58"/>
<rect x="316.3" y="129.3" class="st0" width="245" height="58"/>
<g>
	<path class="st0" d="M168.5,182.4h-28.9l-24.8-42.3h-0.5l-24.2,42.3h-27L99.9,123l-35-55.4H94l22.4,38.8h0.5l22.7-38.8h27
		l-35.3,55.9L168.5,182.4z"/>
	<path class="st0" d="M261.7,182.4h-81.2v-22.5l35.3-30.2c3.2-2.7,5.9-5.2,8.1-7.5c2.2-2.2,4-4.4,5.3-6.6c1.4-2.1,2.4-4.2,3-6.3
		c0.6-2.1,0.9-4.3,0.9-6.7v-2.3c0-2.2-0.4-4.1-1.3-5.8c-0.9-1.6-2-3-3.5-4.1c-1.4-1.1-3-1.9-4.9-2.5c-1.8-0.5-3.6-0.8-5.5-0.8
		c-2.7,0-5.1,0.4-7.2,1.3c-2,0.9-3.8,2.1-5.3,3.5c-1.5,1.5-2.7,3.2-3.7,5.1c-1,1.9-1.8,4-2.3,6.2L178,94.9c1.3-3.9,3.1-7.7,5.4-11.3
		c2.3-3.6,5.2-6.7,8.6-9.4c3.5-2.7,7.5-4.8,12.2-6.3c4.7-1.5,10-2.3,15.9-2.3c6.2,0,11.8,0.9,16.6,2.6c4.8,1.8,8.9,4.2,12.2,7.2
		c3.3,3.1,5.9,6.7,7.6,10.9c1.8,4.2,2.6,8.8,2.6,13.7s-0.8,9.4-2.5,13.5c-1.6,4.1-3.9,7.9-6.7,11.4c-2.8,3.6-6.1,6.9-9.8,10.1
		c-3.7,3.2-7.6,6.4-11.7,9.7l-21.4,16.8h54.3V182.4z"/>
</g>
</svg>
