<svg id="Layer_1" data-name="Layer 1" xmlns="http://www.w3.org/2000/svg" viewBox="0 0 403.53 403.58"><defs><style>.cls-1{fill:#f9be01;}.cls-2{fill:#e54646;}.cls-3{fill:#e02128;}.cls-4{fill:#fefefe;}</style></defs><g id="wGJcXs"><path class="cls-1" d="M201.88,0A201.65,201.65,0,0,1,403.53,202c-.1,111.52-90.57,201.79-202,201.61A201.79,201.79,0,0,1,201.88,0Z"/><path class="cls-2" d="M201.89,50c83.74.39,151.67,67.58,151.6,152A151.74,151.74,0,1,1,50,201.33C50.22,117.67,117.77,50.2,201.89,50Z"/><path class="cls-3" d="M201.78,66.72C276,66.23,337.35,127.5,336.9,202.58a135.35,135.35,0,0,1-138,134.33c-70.7-1.19-134.78-60.13-132.16-140.36C69,127.19,126.65,66.46,201.78,66.72Z"/><path class="cls-4" d="M178,125.41c-3.4-8.15-6.78-16.24-10.38-24.89,32-9.65,62.45-6.94,90.2,11.1,40.94,26.6,55.68,65.29,48.64,113.36l5.77,2.77,6.29,3L275.08,256c-2.69-16.56-5.33-32.77-8.05-49.48l13.75,6.4c2.76-28.8-5.89-53-27.81-71.58S205.73,118.23,178,125.41Z"/><path class="cls-4" d="M122.18,274.58C83.61,232.77,84.24,166,126.81,125L120,112.58l49.86,3.51c-7.06,15.14-14,30-21.3,45.64l-7.09-12.88C128.7,163.7,122,180.18,121.13,199s4.62,35.88,15.72,51.36C132,258.31,127.18,266.31,122.18,274.58Z"/><path class="cls-4" d="M130.81,268l50.17-1.6-7,10.94c21.17,9.14,60.09,8.81,88.24-22.78l25,11.2c-21.41,31.35-72.76,58-128.36,35.19l-8.6,13.29Z"/></g></svg>