<?xml version="1.0" encoding="utf-8"?>
<!-- Generator: Adobe Illustrator 24.2.0, SVG Export Plug-In . SVG Version: 6.00 Build 0)  -->
<svg version="1.1" id="Layer_1" xmlns="http://www.w3.org/2000/svg" xmlns:xlink="http://www.w3.org/1999/xlink" x="0px" y="0px"
	 viewBox="0 0 500 500" style="enable-background:new 0 0 500 500;" xml:space="preserve">
<style type="text/css">
	.st0{fill:#EF2D0F;}
	.st1{fill:#FEFDFD;}
	.st2{fill:#040303;}
	.st3{fill:#2D2D2D;}
	.st4{fill:#F4D556;}
	.st5{fill:none;stroke:#FF0000;stroke-width:3;stroke-miterlimit:10;}
</style>
<g id="uOukU9.tif">
	<g>
		<path class="st0" d="M249.8,358.4c-20-0.1-39.2-4.4-57.1-13.7c-11.7-6.1-22.3-13.9-31.3-23.6c-16.5-17.8-26.7-38.7-30.6-62.6
			c-1.1-6.7-1.7-13.5-1.8-20.2c-0.1-15.3,2.4-30.2,7.7-44.7c4.3-11.7,10.3-22.5,18.1-32.3c8.6-10.9,18.7-19.9,30.5-27.2
			c14.2-8.8,29.5-14.3,45.9-16.7c11.1-1.6,22.2-1.7,33.4-0.5c14.6,1.5,28.3,5.6,41.4,12c12.4,6.1,23.2,14.2,32.7,24.2
			c15.3,16.2,25.1,35.2,29.8,57c2.1,9.5,3,19.1,2.9,28.8c-0.3,20.4-5,39.7-14.7,57.7c-6.2,11.5-14,21.7-23.7,30.5
			c-15.7,14.3-34,23.7-54.7,28.3c-6.7,1.5-13.4,2.5-20.3,2.8C255.3,358.2,252.7,358.3,249.8,358.4z M236.7,211.5
			c2.3,2.8,5,5.2,7.5,7.8c7,7.1,14.1,14.1,21.2,21.1c10.5,10.5,21,21.1,31.5,31.6c10.9,10.9,21.7,21.8,32.6,32.7
			c0.8,0.8,1.3,1.9,2.7,0.1c6.5-8.3,11.7-17.3,15.5-27.1c4.6-11.9,6.8-24.2,7.3-36.9c0.2-6.5-0.3-12.9-1.1-19.4
			c-1.2-9.6-3.7-18.9-7.5-27.8c-6.4-14.9-15.7-27.7-28.3-38c-9.4-7.7-19.9-13.6-31.4-17.4c-13.8-4.6-28.1-6.7-42.7-5.8
			c-7,0.4-13.9,1.3-20.7,2.9c-14.8,3.6-28.2,9.9-40.2,19.4c-1.7,1.4-1.7,2-0.2,3.4c7.6,7.5,15.1,15.1,22.7,22.7
			c5.7,5.7,11.4,11.3,17.1,16.9c3.6,4,7.5,7.8,11.4,11.4C234.9,210,235.7,210.8,236.7,211.5z M232.5,232.1c-2.6-3.2-5.6-6-8.6-8.7
			c-3.5-4.1-7.3-7.8-11.3-11.3c-0.3-0.3-0.5-0.7-0.8-1c-6.2-6.2-12.3-12.4-18.5-18.5c-7.7-7.7-15.3-15.3-23-23c-0.8-0.8-1.3-1-2.2,0
			c-8.8,11-15.1,23.3-18.8,36.9c-3.9,14.2-4.9,28.6-3.4,43.2c1.2,12.1,4.3,23.7,9.4,34.6c6.4,13.8,15.6,25.5,27.6,35.1
			c17.8,14.3,38.3,21.2,60.8,22.6c8.8,0.5,17.6,0,26.3-1.5c16.6-2.9,31.8-9.2,45.3-19.3c3.8-2.8,3.8-2.9,0.4-6.3
			c-8.3-8.3-16.7-16.6-25-24.9c-0.3-0.3-0.5-0.7-0.8-1c-16.6-16.6-33.2-33.2-49.8-49.8C237.6,236.8,235.3,234.1,232.5,232.1z"/>
		<path class="st1" d="M222.8,197.6c-5.7-5.6-11.4-11.2-17.1-16.9c-7.6-7.5-15.1-15.1-22.7-22.7c-1.4-1.4-1.5-2,0.2-3.4
			c11.9-9.5,25.4-15.8,40.2-19.4c6.8-1.6,13.7-2.5,20.7-2.9c14.7-0.9,28.9,1.2,42.7,5.8c11.5,3.8,22,9.7,31.4,17.4
			c12.6,10.3,21.9,23.1,28.3,38c3.8,8.9,6.3,18.2,7.5,27.8c0.8,6.5,1.4,12.9,1.1,19.4c-0.5,12.7-2.7,25-7.3,36.9
			c-3.8,9.8-9,18.8-15.5,27.1c-1.4,1.7-1.9,0.7-2.7-0.1c-10.9-10.9-21.8-21.8-32.6-32.7c-10.5-10.5-21-21.1-31.5-31.6
			c1.5-7.2,3-14.3,4.5-22c2.3,4.5,4.3,8.4,6.3,12.4c1.2,2.3,2.5,4.6,5.2,5.1c9.1,2,18.1,3.8,27.2,5.6c4.6,0.9,8.7-2,9.3-6.5
			c0.5-3.8-1.7-7.8-6.8-8.6c-6.9-1.1-13.7-2.5-20.6-3.7c-1.2-0.2-1.8-0.7-2.3-1.7c-4.1-8.4-8.1-16.9-12.2-25.3
			c-2.3-4.7-4.9-9-9.5-12c-5.4-3.5-10.9-4.4-16.6-1.3c-4.7,2.5-9.2,5.3-13.9,7.9C231.8,192.7,227.3,195.1,222.8,197.6z M263.9,146.2
			c-7.5-0.6-15.1,6.5-15.1,14.7c0.1,9.1,7,15.5,15.2,15.4c9-0.1,14.9-7.3,15.1-15.2C279.3,153.3,272,145.5,263.9,146.2z"/>
		<path class="st1" d="M223.9,223.4c3.1,2.7,6,5.5,8.6,8.7c-0.1,0.1-0.2,0.2-0.2,0.4c-2.8,14.1-5.1,28.3-7.7,42.4
			c-0.6,3.4-0.8,6.9-3.5,9.9c-7.8,8.8-15.1,18-22.6,26.9c-3.6,4.3-3.3,9.7,0.8,13.3c3.7,3.2,8.9,2.7,12.5-1.2
			c2.9-3.3,5.7-6.7,8.5-10.1c6.8-8,13.7-15.9,20.5-23.9c1.8-2.1,3.6-4.2,4.2-7c0.9-4.7,1.5-9.5,2.3-14.2c0.7-3.9,1.4-7.7,2.1-12
			c7.4,7.5,14.5,14.6,21.6,21.7c1,1,1.4,2,1.4,3.4c0,12.2,0,24.4,0,36.6c0,6,3.7,10.1,9,10.2c5.1,0.1,9.3-4.4,9.2-10
			c-0.3-9.5,0-18.9,0-28.4c8.3,8.3,16.7,16.6,25,24.9c3.4,3.4,3.4,3.5-0.4,6.3c-13.5,10.1-28.7,16.4-45.3,19.3
			c-8.7,1.5-17.5,2-26.3,1.5c-22.5-1.3-43-8.3-60.8-22.6c-11.9-9.6-21.1-21.3-27.6-35.1c-5.1-11-8.2-22.5-9.4-34.6
			c-1.5-14.7-0.5-29.1,3.4-43.2c3.7-13.6,10.1-25.9,18.8-36.9c0.8-1,1.4-0.8,2.2,0c7.6,7.7,15.3,15.3,23,23
			c6.2,6.2,12.3,12.4,18.5,18.5c0.3,0.3,0.5,0.7,0.8,1c-2.7,5.1-5.4,10.3-8.3,15.4c-2.4,4.2-1.4,9.3,2.6,11.4
			c4.3,2.3,9.1,0.5,11.1-4.2C219.7,230.8,221.8,227.1,223.9,223.4z"/>
		<path class="st2" d="M290.6,290c0,9.5-0.3,18.9,0,28.4c0.2,5.7-4.1,10.1-9.2,10c-5.4-0.1-9-4.2-9-10.2c0-12.2,0-24.4,0-36.6
			c0-1.4-0.4-2.4-1.4-3.4c-7.1-7.1-14.2-14.2-21.6-21.7c-0.8,4.3-1.5,8.1-2.1,12c-0.8,4.7-1.5,9.5-2.3,14.2c-0.5,2.8-2.4,4.9-4.2,7
			c-6.8,8-13.7,15.9-20.5,23.9c-2.9,3.3-5.6,6.8-8.5,10.1c-3.6,4-8.8,4.4-12.5,1.2c-4.1-3.6-4.4-9-0.8-13.3
			c7.5-9,14.8-18.2,22.6-26.9c2.7-3,2.9-6.5,3.5-9.9c2.6-14.1,4.9-28.3,7.7-42.4c0-0.1,0.1-0.2,0.2-0.4c2.8,2.1,5.1,4.7,7.5,7.1
			c16.6,16.6,33.2,33.2,49.8,49.8C290.1,289.3,290.4,289.7,290.6,290z"/>
		<path class="st2" d="M222.8,197.6c4.5-2.5,8.9-4.9,13.4-7.4c4.6-2.6,9.2-5.4,13.9-7.9c5.8-3,11.3-2.1,16.6,1.3
			c4.6,3,7.2,7.3,9.5,12c4,8.4,8.1,16.9,12.2,25.3c0.5,0.9,1.1,1.5,2.3,1.7c6.9,1.2,13.7,2.6,20.6,3.7c5.1,0.8,7.3,4.8,6.8,8.6
			c-0.6,4.5-4.7,7.4-9.3,6.5c-9.1-1.8-18.2-3.7-27.2-5.6c-2.7-0.6-4-2.8-5.2-5.1c-2-4-4.1-7.9-6.3-12.4c-1.6,7.7-3.1,14.9-4.5,22
			c-7.1-7-14.1-14-21.2-21.1c-2.5-2.6-5.3-4.9-7.5-7.8c0.3-1.4,1-2.8,0.8-4.4c-1.2,0.7-2.3,1.3-3.3,2
			C230.3,205.4,226.4,201.6,222.8,197.6z"/>
		<path class="st2" d="M223.9,223.4c-2.1,3.7-4.2,7.4-5.9,11.3c-2,4.7-6.8,6.5-11.1,4.2c-4-2.1-5-7.2-2.6-11.4
			c2.9-5.1,5.5-10.3,8.3-15.4C216.6,215.6,220.4,219.4,223.9,223.4z"/>
		<path class="st1" d="M234.2,209c1.1-0.6,2.2-1.3,3.3-2c0.1,1.7-0.5,3-0.8,4.4C235.7,210.8,234.9,210,234.2,209z"/>
		<path class="st2" d="M263.9,146.2c8-0.7,15.4,7.1,15.2,15c-0.2,7.9-6,15-15.1,15.2c-8.2,0.1-15.1-6.3-15.2-15.4
			C248.8,152.7,256.5,145.6,263.9,146.2z"/>
		<rect x="23" y="65" class="st3" width="22" height="319"/>
		<rect x="34" y="68" class="st4" width="21.7" height="314"/>
		
			<rect x="455.8" y="65.5" transform="matrix(-1 -1.224647e-16 1.224647e-16 -1 933.6174 449.9648)" class="st3" width="22" height="319"/>
		
			<rect x="445.2" y="67.5" transform="matrix(-1 -1.224647e-16 1.224647e-16 -1 911.9623 448.9648)" class="st4" width="21.7" height="314"/>
	</g>
</g>
<line class="st5" x1="45" y1="90" x2="456" y2="90"/>
<line class="st5" x1="44" y1="143.5" x2="455" y2="143.5"/>
<line class="st5" x1="45.3" y1="191.1" x2="456.3" y2="191.1"/>
<line class="st5" x1="44.3" y1="244.6" x2="455.3" y2="244.6"/>
<line class="st5" x1="44.1" y1="289.5" x2="455.1" y2="289.5"/>
<line class="st5" x1="43.1" y1="343" x2="454.1" y2="343"/>
</svg>
