<?xml version="1.0" encoding="utf-8"?>
<!-- Generator: Adobe Illustrator 24.2.0, SVG Export Plug-In . SVG Version: 6.00 Build 0)  -->
<svg version="1.1" id="Layer_1" xmlns="http://www.w3.org/2000/svg" xmlns:xlink="http://www.w3.org/1999/xlink" x="0px" y="0px"
	 viewBox="0 0 1379.1 2055.1" style="enable-background:new 0 0 1379.1 2055.1;" xml:space="preserve">
<style type="text/css">
	.st0{fill:#FEDB2E;}
	.st1{fill:#FFFFFF;}
	.st2{fill:#E85724;stroke:#E85724;stroke-miterlimit:10;}
	.st3{fill:#39B54A;stroke:#39B54A;stroke-miterlimit:10;}
	.st4{fill:#0A090A;}
	.st5{fill:#B8BABC;}
	.st6{fill:#FFFEFE;}
</style>
<rect x="444.6" y="0" class="st0" width="489.9" height="2055.1"/>
<path class="st1" d="M1005.7,1485.2H373.5c-18.8,0-34.1-15.3-34.1-34.1V271.9c0-18.8,15.3-34.1,34.1-34.1h632.2
	c18.8,0,34.1,15.3,34.1,34.1v1179.2C1039.8,1469.9,1024.5,1485.2,1005.7,1485.2z"/>
<circle class="st2" cx="689.6" cy="492.5" r="145"/>
<circle class="st0" cx="689.6" cy="1235.4" r="182.1"/>
<g>
	<circle class="st3" cx="689.6" cy="845.4" r="145"/>
</g>
<g id="nHVR08.tif">
	<g>
		<path class="st4" d="M1142.8,1855.3c-0.4,19.9-0.4,39.9-0.8,59.8c-0.8,37.5-12.2,71.8-30.5,104.1c-23.1,40.8-56.1,72.4-94.5,98.7
			c-17.8,12.2-36.8,22.4-56.3,31.7c-1.6,0.7-3.1,1.1-4.9,1.1c-77.5-0.4-154.9,0.2-232.4-0.6c-32.8-0.3-59.7-12-83.8-32.9
			c-25.2-21.9-44.6-48.5-62.2-76.6c-30.5-48.8-55.3-100.5-79.5-152.6c-20.6-44.3-40.5-89-64.3-131.8c-5.7-10.2-11.9-20.2-17.9-30.2
			c-7.2-12.1-11.1-25.1-10.9-39.3c0-2.9,0-5.8-0.1-8.7c-1.7-32.3,15.7-53.2,41.2-69.4c21.5-13.6,65.8-14.7,89.9,7.5
			c19.8,18.3,38.1,37.9,57.1,57.1c2.5,2.5,5.3,4.9,8,7.4c0.9-1.2,0.3-3.1,0.3-4.8c0.1-120.8,0-241.6,0.1-362.3
			c0-29.1,1-58.2,1.4-87.4c0.4-25.1,12-43.2,30.3-58.5c11.9-9.9,25.5-15.3,40.5-17.8c0.8-0.1,1.7-0.1,2.2-0.9c6.1,0,12.3,0,18.4,0
			c11,0.5,21.3,3.5,31,8.8c14.9,8.2,26.2,19.7,34.7,34.4c6.1,10.6,9,21.6,8.5,34c-0.8,19.6-0.4,39.2-0.2,58.8
			c0.4,38.6,1.4,77.3,1,115.9c-0.1,5.7,0.5,6.2,5.8,3.9c15.1-6.3,30.9-6.6,46.7-5.5c17.7,1.3,32.3,10.2,45.4,21.5
			c4.9,4.2,9.5,8.8,13.1,14.2c2.3,3.6,4.7,4,8.5,1.7c13.8-8.6,29.1-13.3,45.1-12.9c32.7,0.8,58.7,14.5,75.3,43.6
			c3,5.3,5.3,11,7.6,16.8c2,5.3,3.7,6.1,9,4.2c11.8-4.2,23.7-6.9,36.4-6.7c34.9,0.5,68.6,25.4,78.8,58.7c1.1,3.4,1.6,6.9,1.8,10.5
			c0.7,19.1,0.5,38.1,0.5,57.2c0,80.4,0,160.7,0,241.1C1143.1,1851.3,1143.4,1853.3,1142.8,1855.3z"/>
		<path class="st5" d="M1143.6,1855.3l-0.4,0.1l-0.4-0.1c-0.1-1.4-0.2-2.7-0.2-4.1"/>
		<path class="st6" d="M642.1,1459.8c-0.1-54.9,0.3-131.2,1-207.5c0.1-8.3,0.7-16.7,0.7-25c0-6.6,2.3-12.2,6.1-17.4
			c18.4-25.4,51.2-25.5,70-0.4c3.9,5.2,5.8,10.5,5.8,17.2c0.4,113.3,1,226.6,1.6,339.8c0.1,10.6,6.3,17.8,16.8,19.8
			c6.1,1.1,11-0.3,15.8-4.7c5.7-5.2,8-10.6,7.9-18.5c-0.3-26-0.9-52.1,0.9-78.2c0.4-5.4,1.2-10.8,2.2-16.2
			c3.9-19.7,27.4-30.1,45-27.2c15.7,2.6,26.2,12,33.9,25.3c0.9,1.6,0.8,3.3,0.8,4.9c0.7,38.3,1.3,76.6,2,115c0.2,9,0.8,18,1,27.1
			c0.1,5,2.4,8.2,6.7,10.6c12,6.7,24.1,3.8,31.6-7.6c1.1-1.8,0.7-3.6,0.7-5.4c0.3-31,0.5-62,0.9-93c0.1-6.3,0.4-12.6,1.3-18.8
			c3.9-24,29.7-38.4,53.9-30.2c18.5,6.2,25.4,15.9,26.4,37.1c1.6,32.8,1.6,65.7,2.1,98.6c0.2,16,0.4,32,2,48
			c1.3,12.2,6.3,16.9,18.4,17.4c9,0.4,17-6.2,18.6-16c2.7-17,2.3-34.3,2.9-51.5c0.5-16.7,0.8-33.4,1.2-50.1c0-1.3,0-2.6,0.6-4
			c12.3-24.6,43.2-31.1,65.5-15.1c12.7,9.1,13.5,21.6,14.2,34.7c1.1,19.9,1.2,39.8,1.1,59.8c-0.3,85-0.6,170-1,255
			c-0.1,16,0,32.1-1.6,48c-2.2,21.3-10,40.9-19.8,59.6c-26.1,49.8-67.1,83.9-115.5,110.5c-10.9,6-21.8,8.6-34.3,8.5
			c-66.6-0.7-133.1,0.5-199.7-1.1c-8.9-0.2-17.7-0.7-26.4-2.4c-13.1-2.5-23.8-9.8-33.6-18.3c-24.2-21-42.7-46.5-59.4-73.6
			c-29.6-48.1-53.6-99.1-77.6-150.1c-20.9-44.2-40.6-89-64.6-131.6c-6.5-11.5-14.3-22.3-19.5-34.6c-11.4-27,3.8-54,32.8-57.9
			c10.1-1.4,19.2,1.3,26.8,8.3c22.7,20.6,43.7,43,65.2,64.8c11.5,11.6,23,23.2,34.8,34.6c7.6,7.4,19.2,7.4,27.3,0.6
			c4.3-3.6,6.6-7.5,6.6-13.8C642,1650.2,642.1,1565.7,642.1,1459.8z"/>
	</g>
</g>
</svg>
