<svg xmlns="http://www.w3.org/2000/svg" viewBox="0 0 463.49 102.05"><defs><style>.cls-1{fill:#fed787;}.cls-2{fill:#013664;}</style></defs><g id="template"><path class="cls-1" d="M296.52,51.58h-6.74l6.5-32.42h12.64q4.63,0,7.22,2.19a7.63,7.63,0,0,1,2.58,6.17,12.61,12.61,0,0,1-.51,3.56,11.71,11.71,0,0,1-4,5.9,11.5,11.5,0,0,1-3.41,1.78l3.9,12.82h-7.2l-3.21-12h-5.34ZM307,33.79a4.44,4.44,0,0,0,2.72-.83,4.11,4.11,0,0,0,1.51-2.56c.15-.71.28-1.29.37-1.74a5.86,5.86,0,0,0,.14-1,2.42,2.42,0,0,0-.72-1.79,3.07,3.07,0,0,0-2.25-.72h-7l-1.72,8.68Z"/><path class="cls-1" d="M321.27,51.58l.47-2.41h9.61l5.57-28h-.27l-10.32,8-1.44-1.86,10.64-8.18H340l-6,30h9.11l-.51,2.41Z"/><path class="cls-1" d="M349.14,51.58l.46-2.41h9.62l5.57-28h-.28l-10.31,8-1.44-1.86,10.64-8.18h4.5l-6,30H371l-.51,2.41Z"/><path class="cls-1" d="M386.76,52.14a7.41,7.41,0,0,1-6.43-2.93c-1.41-2-2.11-4.62-2.11-8a38.67,38.67,0,0,1,.34-5,33.91,33.91,0,0,1,1.1-5.13,27.58,27.58,0,0,1,1.88-4.76,16.83,16.83,0,0,1,2.71-3.95,12.75,12.75,0,0,1,3.58-2.7,10,10,0,0,1,4.5-1q4.32,0,6.44,2.92t2.11,8a38.74,38.74,0,0,1-.35,5,32.71,32.71,0,0,1-1.09,5.13,27.9,27.9,0,0,1-1.88,4.76,16.86,16.86,0,0,1-2.72,4,12.21,12.21,0,0,1-3.6,2.69A9.89,9.89,0,0,1,386.76,52.14Zm.28-2.41a7.23,7.23,0,0,0,3.44-.84,9.16,9.16,0,0,0,2.83-2.38,15,15,0,0,0,2.16-3.75,27.56,27.56,0,0,0,1.46-4.93l.84-4c.15-.8.27-1.59.35-2.36s.11-1.51.11-2.23a10.62,10.62,0,0,0-1.46-6A5.27,5.27,0,0,0,392.06,21a7.25,7.25,0,0,0-3.46.83,9.27,9.27,0,0,0-2.81,2.39A14.65,14.65,0,0,0,383.63,28a26.75,26.75,0,0,0-1.47,4.93l-.83,4c-.16.8-.27,1.59-.35,2.36a21.5,21.5,0,0,0-.12,2.22,10.65,10.65,0,0,0,1.47,6A5.25,5.25,0,0,0,387,49.73Z"/><path class="cls-1" d="M414.63,52.14a7.4,7.4,0,0,1-6.43-2.93c-1.41-2-2.12-4.62-2.12-8a38.74,38.74,0,0,1,.35-5A33.89,33.89,0,0,1,407.52,31a28.41,28.41,0,0,1,1.88-4.76,17.16,17.16,0,0,1,2.72-3.95,12.61,12.61,0,0,1,3.58-2.7,10,10,0,0,1,4.5-1q4.32,0,6.44,2.92c1.4,1.95,2.11,4.63,2.11,8a38.74,38.74,0,0,1-.35,5,33.89,33.89,0,0,1-1.09,5.13,28.75,28.75,0,0,1-1.88,4.76,17.16,17.16,0,0,1-2.72,4,12.21,12.21,0,0,1-3.6,2.69A9.92,9.92,0,0,1,414.63,52.14Zm.28-2.41a7.17,7.17,0,0,0,3.43-.84,9.08,9.08,0,0,0,2.84-2.38,15.64,15.64,0,0,0,2.16-3.75,27.56,27.56,0,0,0,1.46-4.93l.84-4c.15-.8.27-1.59.35-2.36s.11-1.51.11-2.23a10.7,10.7,0,0,0-1.46-6A5.28,5.28,0,0,0,419.92,21a7.28,7.28,0,0,0-3.46.83,9.51,9.51,0,0,0-2.81,2.39A15.26,15.26,0,0,0,411.49,28,27.56,27.56,0,0,0,410,32.92l-.84,4c-.15.8-.27,1.59-.34,2.36a21.5,21.5,0,0,0-.12,2.22,10.74,10.74,0,0,0,1.46,6A5.28,5.28,0,0,0,414.91,49.73Z"/><path class="cls-1" d="M442,52.14a14.28,14.28,0,0,1-6.58-1.39,9.74,9.74,0,0,1-4.2-4.18l2.09-1.49a9.16,9.16,0,0,0,3.48,3.51A10.91,10.91,0,0,0,442,49.73a11.17,11.17,0,0,0,4-.63,8,8,0,0,0,2.76-1.67A6.62,6.62,0,0,0,450.37,45a8.63,8.63,0,0,0,.53-3,5.08,5.08,0,0,0-1.23-3.57,7.44,7.44,0,0,0-4-2l-3.48-.74q-6.64-1.49-6.64-7.66a9.59,9.59,0,0,1,.69-3.62,8.49,8.49,0,0,1,2.05-3,9.57,9.57,0,0,1,3.36-2,13.25,13.25,0,0,1,4.62-.74,13,13,0,0,1,6.25,1.3,10.25,10.25,0,0,1,3.83,3.53l-2,1.58a8.55,8.55,0,0,0-3.23-3,10.8,10.8,0,0,0-5-1,8.36,8.36,0,0,0-5.88,1.88,6.44,6.44,0,0,0-2,5,5.11,5.11,0,0,0,1.21,3.6,7.34,7.34,0,0,0,3.85,1.93l3.44.74a9.35,9.35,0,0,1,5.09,2.67,7.23,7.23,0,0,1,1.74,5,10.8,10.8,0,0,1-.75,4,9.08,9.08,0,0,1-2.2,3.27A10.57,10.57,0,0,1,447,51.33,14.32,14.32,0,0,1,442,52.14Z"/><polygon class="cls-1" points="278.46 69.4 274.12 69.4 284.29 19.05 288.62 19.05 278.46 69.4"/><polygon class="cls-1" points="269.64 69.4 265.31 69.4 275.47 19.05 279.81 19.05 269.64 69.4"/><path class="cls-1" d="M370,69.4,371.64,61h3.15a2.93,2.93,0,0,1,1.95.58,2.08,2.08,0,0,1,.69,1.66,3.17,3.17,0,0,1-.24,1.25,2.8,2.8,0,0,1-.67,1,3.22,3.22,0,0,1-1,.62,3.71,3.71,0,0,1-1.31.22h-1.87l-.61,3.06Zm2.66-4.59h1.79a1.19,1.19,0,0,0,.7-.22,1,1,0,0,0,.39-.66c0-.18.07-.33.1-.45a1.8,1.8,0,0,0,0-.27.63.63,0,0,0-.18-.46.79.79,0,0,0-.59-.19h-1.8Z"/><path class="cls-1" d="M383.11,69.4l-.19-2h-2.68l-1,2H377.4L381.7,61h2.22l.95,8.37Zm-.57-6.8h-.09l-1.53,3.31h1.88Z"/><path class="cls-1" d="M387.12,69.4,388.8,61h1.74l-1.37,6.84h3.07l-.31,1.53Z"/><path class="cls-1" d="M394.38,69.4,396.06,61h1.74l-1.37,6.84h3.07l-.31,1.53Z"/><path class="cls-1" d="M401.64,69.4,403.32,61h5.38l-.31,1.53h-3.63l-.38,1.84h3.22l-.31,1.53h-3.22l-.38,1.94h3.77l-.32,1.53Z"/><path class="cls-1" d="M414.46,62.56,413.1,69.4h-1.74l1.36-6.84h-2.2l.31-1.53H417l-.31,1.53Z"/><path class="cls-1" d="M417.28,69.4l.29-1.41h1l1.12-5.55h-1L419,61h3.82l-.29,1.41h-1L420.34,68h1l-.28,1.41Z"/><path class="cls-1" d="M429.28,69.4h-6l.31-1.53,4.92-5.31h-3.67l.31-1.53h5.74l-.31,1.53-4.92,5.31h3.9Z"/><path class="cls-1" d="M431.73,69.4,433.41,61h5.39l-.31,1.53h-3.64l-.37,1.84h3.22l-.32,1.53h-3.21l-.39,1.94h3.77l-.31,1.53Z"/><path class="cls-1" d="M441.55,69.4h-1.74L441.49,61h3.26a2.8,2.8,0,0,1,1.87.56,2,2,0,0,1,.66,1.6,3.13,3.13,0,0,1-.13.91,3.21,3.21,0,0,1-.39.84,3,3,0,0,1-.65.69,2.94,2.94,0,0,1-.88.46l1,3.31h-1.86l-.83-3.11h-1.38Zm2.71-4.59a1.19,1.19,0,0,0,.7-.22,1,1,0,0,0,.39-.66c0-.18.07-.33.1-.45a1.8,1.8,0,0,0,0-.27.63.63,0,0,0-.18-.46.78.78,0,0,0-.58-.19h-1.8l-.45,2.25Z"/><path class="cls-1" d="M313.29,83,315,74.62h5.25l-.32,1.53h-3.5L316,78h3.08l-.31,1.54h-3.08L315,83Z"/><path class="cls-1" d="M324.49,83.14a3.43,3.43,0,0,1-1.15-.2,2.71,2.71,0,0,1-1-.61,3.19,3.19,0,0,1-.66-1.06,4.39,4.39,0,0,1-.24-1.53,6.23,6.23,0,0,1,.32-2,5.63,5.63,0,0,1,.9-1.68,4.13,4.13,0,0,1,1.37-1.13,3.63,3.63,0,0,1,1.73-.42,3.33,3.33,0,0,1,1.14.2,2.54,2.54,0,0,1,1,.61,2.9,2.9,0,0,1,.66,1.06,4.16,4.16,0,0,1,.25,1.53,6.23,6.23,0,0,1-.33,2,5.21,5.21,0,0,1-.9,1.68,4.2,4.2,0,0,1-1.36,1.13A3.66,3.66,0,0,1,324.49,83.14Zm.12-1.54A1.85,1.85,0,0,0,326,81a3.11,3.11,0,0,0,.74-1.59l.25-1.27a2.54,2.54,0,0,0,0-.34c0-.1,0-.2,0-.29,0-1-.45-1.54-1.36-1.54a1.82,1.82,0,0,0-1.38.57,3.11,3.11,0,0,0-.75,1.59l-.25,1.26c0,.12,0,.24-.05.34s0,.2,0,.29C323.24,81.09,323.7,81.6,324.61,81.6Z"/><path class="cls-1" d="M333.91,74.62l-1,5c0,.12,0,.24-.06.38a2.62,2.62,0,0,0,0,.38A1.07,1.07,0,0,0,334,81.6a1.51,1.51,0,0,0,1.14-.43,2.78,2.78,0,0,0,.61-1.37l1-5.18h1.71l-1,5.07a7.43,7.43,0,0,1-.46,1.54,3.5,3.5,0,0,1-.71,1.07,2.82,2.82,0,0,1-1,.63,4.11,4.11,0,0,1-1.37.21,3,3,0,0,1-2.11-.69,2.65,2.65,0,0,1-.72-2,4.26,4.26,0,0,1,0-.5c0-.17,0-.36.08-.57l.95-4.74Z"/><path class="cls-1" d="M343.17,79l-.5-1.67h-.07L341.46,83h-1.65l1.68-8.37h1.89l1.35,4,.51,1.67h.07l1.14-5.7h1.64L346.41,83h-1.88Z"/><path class="cls-1" d="M351,74.62h2.69a3.33,3.33,0,0,1,2.36.79,3,3,0,0,1,.86,2.34,7.31,7.31,0,0,1-.29,2.08,4.92,4.92,0,0,1-.85,1.66,3.92,3.92,0,0,1-1.38,1.1,4.19,4.19,0,0,1-1.88.4h-3.19Zm1.66,6.84a2.11,2.11,0,0,0,1.39-.49,2.66,2.66,0,0,0,.78-1.53l.23-1.13a3.41,3.41,0,0,0,.06-.43,2,2,0,0,0,0-.31,1.22,1.22,0,0,0-1.34-1.42h-1.36l-1.07,5.31Z"/><path class="cls-1" d="M358.68,83l1.68-8.37h5.38l-.31,1.53H361.8L361.42,78h3.22l-.31,1.54h-3.22l-.38,1.93h3.77L364.18,83Z"/><path class="cls-1" d="M368.49,83h-1.74l1.68-8.37h3.27a2.81,2.81,0,0,1,1.86.56,2,2,0,0,1,.67,1.6,3.58,3.58,0,0,1-.13.92,3,3,0,0,1-.4.84,3.17,3.17,0,0,1-.64.68,2.83,2.83,0,0,1-.88.46l1,3.31h-1.86l-.82-3.1h-1.38Zm2.71-4.59a1.13,1.13,0,0,0,.71-.22,1.09,1.09,0,0,0,.39-.66q.06-.27.09-.45a1,1,0,0,0,0-.27.6.6,0,0,0-.19-.46.81.81,0,0,0-.58-.19h-1.8l-.44,2.25Z"/><path class="cls-1" d="M378.33,74a.86.86,0,0,1,.7.24.71.71,0,0,1,.2.5,2.32,2.32,0,0,1,0,.24c0,.09,0,.18,0,.27a3.16,3.16,0,0,1-.2.59,3.62,3.62,0,0,1-.37.62,5.77,5.77,0,0,1-.51.62,4.21,4.21,0,0,1-.61.52h-1.19a5.81,5.81,0,0,0,.84-.74,4.19,4.19,0,0,0,.59-.82.72.72,0,0,1-.48-.26.68.68,0,0,1-.13-.4,1.29,1.29,0,0,1,0-.24c0-.1,0-.2.05-.28a1.07,1.07,0,0,1,.36-.61A1.2,1.2,0,0,1,378.33,74Z"/><path class="cls-1" d="M383,83.14a4.66,4.66,0,0,1-1.85-.34,2.49,2.49,0,0,1-1.27-1.15l1.33-1a2.1,2.1,0,0,0,.73.75,2.08,2.08,0,0,0,1.06.24,1.82,1.82,0,0,0,1.18-.34,1.05,1.05,0,0,0,.42-.87.67.67,0,0,0-.28-.58,2,2,0,0,0-.68-.29l-.56-.12a3.29,3.29,0,0,1-.82-.27,2.27,2.27,0,0,1-.64-.44,1.78,1.78,0,0,1-.4-.64,2.7,2.7,0,0,1,.09-2,2.71,2.71,0,0,1,.66-.85,3.14,3.14,0,0,1,1-.57,4,4,0,0,1,1.32-.21,4.49,4.49,0,0,1,1.68.3,2.59,2.59,0,0,1,1.19.87l-1.26,1.12a1.78,1.78,0,0,0-.67-.57,2.37,2.37,0,0,0-1-.18,1.66,1.66,0,0,0-1,.28.88.88,0,0,0-.38.73.63.63,0,0,0,.24.54,1.56,1.56,0,0,0,.66.28l.53.12a4.54,4.54,0,0,1,.88.29,2.46,2.46,0,0,1,.67.45,1.9,1.9,0,0,1,.43.64,2.27,2.27,0,0,1,.16.86,2.56,2.56,0,0,1-.24,1.07,2.9,2.9,0,0,1-.67.94,3.3,3.3,0,0,1-1.07.67A3.74,3.74,0,0,1,383,83.14Z"/><path class="cls-1" d="M392.35,83,394,74.62h5.39l-.32,1.53h-3.63L395.1,78h3.21L398,79.53h-3.22l-.38,1.93h3.77L397.86,83Z"/><path class="cls-1" d="M402.1,74.62h2.69a3.33,3.33,0,0,1,2.36.79,3,3,0,0,1,.86,2.34,7.31,7.31,0,0,1-.29,2.08,4.74,4.74,0,0,1-.85,1.66,3.92,3.92,0,0,1-1.38,1.1,4.15,4.15,0,0,1-1.87.4h-3.2Zm1.66,6.84a2.11,2.11,0,0,0,1.39-.49,2.54,2.54,0,0,0,.78-1.53l.23-1.13c0-.15,0-.29.07-.43s0-.24,0-.31a1.22,1.22,0,0,0-1.34-1.42h-1.36l-1.06,5.31Z"/><path class="cls-1" d="M409.44,83l.28-1.41h1L411.87,76h-1l.28-1.41h3.81L414.64,76h-1l-1.11,5.55h1L413.25,83Z"/><path class="cls-1" d="M420.54,76.15,419.17,83h-1.74l1.37-6.84h-2.21l.31-1.53h6.16l-.32,1.53Z"/><path class="cls-1" d="M423.36,83l.28-1.41h1L425.79,76h-1l.28-1.41h3.81L428.56,76h-1l-1.11,5.55h1L427.17,83Z"/><path class="cls-1" d="M433.22,83.14a3.43,3.43,0,0,1-1.15-.2,2.71,2.71,0,0,1-1-.61,3.19,3.19,0,0,1-.66-1.06,4.39,4.39,0,0,1-.24-1.53,6.5,6.5,0,0,1,.32-2,5.63,5.63,0,0,1,.9-1.68,4.23,4.23,0,0,1,1.37-1.13,3.63,3.63,0,0,1,1.73-.42,3.33,3.33,0,0,1,1.14.2,2.54,2.54,0,0,1,1,.61,2.9,2.9,0,0,1,.66,1.06,4.16,4.16,0,0,1,.25,1.53,6.5,6.5,0,0,1-.32,2,5.63,5.63,0,0,1-.9,1.68A4.23,4.23,0,0,1,435,82.72,3.66,3.66,0,0,1,433.22,83.14Zm.12-1.54a1.85,1.85,0,0,0,1.38-.56,3.11,3.11,0,0,0,.74-1.59l.26-1.27a2.38,2.38,0,0,0,0-.34c0-.1,0-.2,0-.29,0-1-.46-1.54-1.37-1.54a1.82,1.82,0,0,0-1.38.57,3.11,3.11,0,0,0-.75,1.59L432,79.43c0,.12,0,.24,0,.34s0,.2,0,.29C432,81.09,432.43,81.6,433.34,81.6Z"/><path class="cls-1" d="M442.63,79l-.51-1.67h-.07L440.91,83h-1.64L441,74.62h1.88l1.36,4,.5,1.67h.07l1.14-5.7h1.65L445.87,83H444Z"/><rect class="cls-2" x="22.89" y="18.09" width="53.83" height="53.83"/><rect class="cls-1" x="40.4" y="47.52" width="1.93" height="11.68" transform="translate(32.89 120.35) rotate(-135)"/><rect class="cls-1" x="40.64" y="30.81" width="1.93" height="11.68" transform="translate(-13.73 40.16) rotate(-45)"/><rect class="cls-1" x="57.11" y="30.81" width="1.93" height="11.68" transform="translate(42.93 -30.33) rotate(45)"/><rect class="cls-1" x="57.34" y="47.66" width="1.93" height="11.68" transform="translate(137.35 50.1) rotate(135)"/><rect class="cls-1" x="48.85" y="53.5" width="1.93" height="14.28" transform="translate(99.62 121.27) rotate(180)"/><rect class="cls-1" x="48.85" y="22.24" width="1.93" height="14.28" transform="translate(99.62 58.76) rotate(180)"/><rect class="cls-1" x="64.47" y="37.87" width="1.93" height="14.28" transform="translate(110.45 -20.43) rotate(90)"/><rect class="cls-1" x="33.22" y="37.87" width="1.93" height="14.28" transform="translate(79.19 10.82) rotate(90)"/><rect class="cls-1" x="33.22" y="37.87" width="1.93" height="14.28" transform="translate(79.19 10.82) rotate(90)"/><rect class="cls-1" x="62.84" y="39.51" width="1.93" height="11" transform="translate(108.81 -18.79) rotate(90)"/><rect class="cls-1" x="34.86" y="39.51" width="1.93" height="11" transform="translate(80.83 9.19) rotate(90)"/><rect class="cls-1" x="76.73" y="18.09" width="157.09" height="53.83"/><path class="cls-2" d="M94.31,58.47A11.37,11.37,0,0,1,90,57.69a8.61,8.61,0,0,1-3.29-2.33,10.77,10.77,0,0,1-2.1-3.86,18,18,0,0,1-.72-5.35,18.67,18.67,0,0,1,.72-5.42,11.17,11.17,0,0,1,2.1-4A8.78,8.78,0,0,1,90,34.31a10.66,10.66,0,0,1,4.31-.84,9.8,9.8,0,0,1,5.4,1.39,9.54,9.54,0,0,1,3.43,4.19l-3.91,2.08a5.57,5.57,0,0,0-1.7-2.62,4.86,4.86,0,0,0-3.22-1,5.11,5.11,0,0,0-4.07,1.73,7.15,7.15,0,0,0-1.5,4.84v3.81a7,7,0,0,0,1.5,4.83,5.2,5.2,0,0,0,4.07,1.68,5,5,0,0,0,3.34-1.11,6.3,6.3,0,0,0,1.89-2.73l3.7,2.18A10.65,10.65,0,0,1,99.75,57,9.4,9.4,0,0,1,94.31,58.47Z"/><path class="cls-2" d="M115.33,58.06V33.89h4.57V54h9.52v4.05Z"/><path class="cls-2" d="M156.49,58.06l-1.94-6.17H146l-1.91,6.17h-4.64l8.11-24.17h5.67l8,24.17Zm-6.16-20h-.17L147.08,48h6.37Z"/><path class="cls-2" d="M177.55,58.06H173V33.89h10.91a8,8,0,0,1,3,.52,6,6,0,0,1,2.23,1.51,6.69,6.69,0,0,1,1.42,2.37,8.85,8.85,0,0,1,.5,3.08,7.93,7.93,0,0,1-1.12,4.29,6.11,6.11,0,0,1-3.38,2.56l5,9.84h-5.09l-4.5-9.32h-4.32Zm5.88-13.16a3,3,0,0,0,2.08-.71,2.63,2.63,0,0,0,.76-2V40.57a2.59,2.59,0,0,0-.76-2,3,3,0,0,0-2.08-.69h-5.88v7Z"/><path class="cls-2" d="M219.09,58.06l-1.94-6.17h-8.58l-1.91,6.17H202l8.11-24.17h5.67l8,24.17Zm-6.16-20h-.17L209.68,48h6.37Z"/><path class="cls-1" d="M65.76,84V82.43h1.13V76.69H65.76V75.17h4.18v1.52H68.8v5.74h1.14V84Z"/><path class="cls-1" d="M75.68,79.8,74.83,78h0V84H73V75.17h2.1l2.4,4.15.84,1.76h0V75.17h1.8V84H78.08Z"/><path class="cls-1" d="M83.57,75.17h3.31a4.5,4.5,0,0,1,1.59.27,3.23,3.23,0,0,1,1.22.83,3.59,3.59,0,0,1,.78,1.37,6.72,6.72,0,0,1,0,3.84,3.59,3.59,0,0,1-.78,1.37,3.23,3.23,0,0,1-1.22.83,4.5,4.5,0,0,1-1.59.28H83.57Zm3.31,7.09a1.86,1.86,0,0,0,1.35-.48,2.06,2.06,0,0,0,.49-1.54V78.88a2,2,0,0,0-.49-1.53,1.86,1.86,0,0,0-1.35-.48H85.49v5.39Z"/><path class="cls-1" d="M95.62,75.17v5.39A2.18,2.18,0,0,0,96,82a1.85,1.85,0,0,0,2.44,0,2.24,2.24,0,0,0,.36-1.39V75.17h1.87v5.18a6.5,6.5,0,0,1-.19,1.69,2.81,2.81,0,0,1-.59,1.17,2.62,2.62,0,0,1-1.07.68,5.93,5.93,0,0,1-3.2,0,2.5,2.5,0,0,1-1.07-.68,2.71,2.71,0,0,1-.6-1.17,7,7,0,0,1-.18-1.69V75.17Z"/><path class="cls-1" d="M106.85,84.11a4.44,4.44,0,0,1-2-.4,4.62,4.62,0,0,1-1.38-1l1.26-1.27a2.87,2.87,0,0,0,2.21,1,1.57,1.57,0,0,0,1-.29.94.94,0,0,0,.34-.76.92.92,0,0,0-.2-.61,1.31,1.31,0,0,0-.82-.33l-.87-.11a3.39,3.39,0,0,1-2-.84A2.74,2.74,0,0,1,104,76.6a2.38,2.38,0,0,1,.64-.84,3,3,0,0,1,1-.55,5.13,5.13,0,0,1,3.14.12,3.59,3.59,0,0,1,1.29.92l-1.27,1.29a2.47,2.47,0,0,0-.76-.59,2.37,2.37,0,0,0-1.13-.23,1.65,1.65,0,0,0-.95.22.73.73,0,0,0-.32.62.77.77,0,0,0,.25.65,1.74,1.74,0,0,0,.8.29l.87.14a3.74,3.74,0,0,1,2,.83,2.34,2.34,0,0,1,.66,1.78,2.88,2.88,0,0,1-.23,1.15,2.4,2.4,0,0,1-.66.91,3.11,3.11,0,0,1-1.08.59A4.68,4.68,0,0,1,106.85,84.11Z"/><path class="cls-1" d="M116.7,76.87V84h-1.92V76.87H112.4v-1.7h6.68v1.7Z"/><path class="cls-1" d="M123.76,84h-1.91V75.17H126a2.77,2.77,0,0,1,1.1.2,2.24,2.24,0,0,1,.84.57,2.48,2.48,0,0,1,.53.89,3.17,3.17,0,0,1,.19,1.14,3,3,0,0,1-.4,1.57,2.3,2.3,0,0,1-1.2,1L128.8,84h-2.13l-1.54-3.23h-1.37Zm2-4.84a1,1,0,0,0,.67-.22.84.84,0,0,0,.24-.65V77.7a.84.84,0,0,0-.24-.65,1,1,0,0,0-.67-.22h-2v2.29Z"/><path class="cls-1" d="M131.45,84V82.43h1.14V76.69h-1.14V75.17h4.18v1.52H134.5v5.74h1.13V84Z"/><path class="cls-1" d="M144.11,84l-.63-2.09h-2.94L139.91,84H138l2.89-8.79h2.37L146.1,84ZM142,76.9H142l-1,3.34h2Z"/><path class="cls-1" d="M148.78,84V75.17h1.91v7.09H154V84Z"/><path class="cls-1" d="M163.26,84h-1.92V75.17h4.17a2.8,2.8,0,0,1,1.1.2,2.28,2.28,0,0,1,.83.57,2.65,2.65,0,0,1,.54.89,3.41,3.41,0,0,1,.19,1.14,3,3,0,0,1-.4,1.57,2.3,2.3,0,0,1-1.2,1L168.29,84h-2.12l-1.54-3.23h-1.37Zm2-4.84a1,1,0,0,0,.68-.22.84.84,0,0,0,.24-.65V77.7a.84.84,0,0,0-.24-.65,1,1,0,0,0-.68-.22h-2v2.29Z"/><path class="cls-1" d="M174.69,84.11a4.29,4.29,0,0,1-1.59-.29,3.22,3.22,0,0,1-1.22-.87,4.12,4.12,0,0,1-.78-1.42,7.07,7.07,0,0,1,0-3.94,4.12,4.12,0,0,1,.78-1.42,3.19,3.19,0,0,1,1.22-.86,4.5,4.5,0,0,1,3.18,0,3.27,3.27,0,0,1,1.22.86,4.12,4.12,0,0,1,.78,1.42,7.32,7.32,0,0,1,0,3.94A4.12,4.12,0,0,1,177.5,83a3.29,3.29,0,0,1-1.22.87A4.29,4.29,0,0,1,174.69,84.11Zm0-1.7a1.67,1.67,0,0,0,1.35-.57,2.39,2.39,0,0,0,.49-1.62V78.91a2.41,2.41,0,0,0-.49-1.63,1.91,1.91,0,0,0-2.7,0,2.41,2.41,0,0,0-.49,1.63v1.31a2.39,2.39,0,0,0,.49,1.62A1.67,1.67,0,0,0,174.69,82.41Z"/><path class="cls-1" d="M181.61,75.17h4.27a2.31,2.31,0,0,1,1.71.61,2.28,2.28,0,0,1,.61,1.64,2.68,2.68,0,0,1-.13.86,1.78,1.78,0,0,1-.36.58,1.32,1.32,0,0,1-.51.33,2.2,2.2,0,0,1-.64.12v.07a2,2,0,0,1,.66.12,1.7,1.7,0,0,1,.64.36,2,2,0,0,1,.48.63,2.13,2.13,0,0,1,.2,1,2.93,2.93,0,0,1-.17,1,2.4,2.4,0,0,1-.47.79,2.16,2.16,0,0,1-1.63.74h-4.66Zm1.92,3.6h1.9a.77.77,0,0,0,.59-.22.8.8,0,0,0,.21-.59v-.38A.82.82,0,0,0,186,77a.8.8,0,0,0-.59-.21h-1.9Zm0,3.57h2.2a.89.89,0,0,0,.6-.2.77.77,0,0,0,.22-.59v-.43a.75.75,0,0,0-.22-.58.84.84,0,0,0-.6-.21h-2.2Z"/><path class="cls-1" d="M195,84.11a4.29,4.29,0,0,1-1.59-.29,3.22,3.22,0,0,1-1.22-.87,3.81,3.81,0,0,1-.78-1.42,7.07,7.07,0,0,1,0-3.94,3.81,3.81,0,0,1,.78-1.42,3.19,3.19,0,0,1,1.22-.86A4.09,4.09,0,0,1,195,75a4,4,0,0,1,1.58.29,3.23,3.23,0,0,1,1.23.86,4.12,4.12,0,0,1,.78,1.42,7.32,7.32,0,0,1,0,3.94,4.12,4.12,0,0,1-.78,1.42,3.25,3.25,0,0,1-1.23.87A4.19,4.19,0,0,1,195,84.11Zm0-1.7a1.67,1.67,0,0,0,1.35-.57,2.45,2.45,0,0,0,.49-1.62V78.91a2.46,2.46,0,0,0-.49-1.63,1.66,1.66,0,0,0-1.35-.56,1.7,1.7,0,0,0-1.36.56,2.46,2.46,0,0,0-.48,1.63v1.31a2.45,2.45,0,0,0,.48,1.62A1.7,1.7,0,0,0,195,82.41Z"/><path class="cls-1" d="M205.27,76.87V84h-1.91V76.87H201v-1.7h6.67v1.7Z"/><path class="cls-1" d="M210,84V82.43h1.13V76.69H210V75.17h4.18v1.52h-1.13v5.74h1.13V84Z"/><path class="cls-1" d="M220.82,84.11a4.32,4.32,0,0,1-1.61-.29A3.18,3.18,0,0,1,218,83a3.72,3.72,0,0,1-.78-1.4,6.1,6.1,0,0,1-.28-2,6.33,6.33,0,0,1,.28-2,4,4,0,0,1,.78-1.44,3.19,3.19,0,0,1,1.22-.89,4.13,4.13,0,0,1,1.61-.3,3.76,3.76,0,0,1,2,.49,3.51,3.51,0,0,1,1.27,1.57l-1.65.86a2,2,0,0,0-.55-.89,1.6,1.6,0,0,0-1.09-.33,1.77,1.77,0,0,0-1.35.54,2.28,2.28,0,0,0-.51,1.6v1.41a2.27,2.27,0,0,0,.51,1.59,1.78,1.78,0,0,0,1.35.55A1.6,1.6,0,0,0,222,82a2.24,2.24,0,0,0,.62-.92l1.56.9a3.94,3.94,0,0,1-1.29,1.56A3.51,3.51,0,0,1,220.82,84.11Z"/><path class="cls-1" d="M229.77,84.11a4.22,4.22,0,0,1-3.33-1.43l1.26-1.27a2.85,2.85,0,0,0,2.2,1,1.57,1.57,0,0,0,1-.29.94.94,0,0,0,.34-.76.92.92,0,0,0-.2-.61,1.29,1.29,0,0,0-.82-.33l-.87-.11a3.39,3.39,0,0,1-2-.84,2.47,2.47,0,0,1-.65-1.78,2.59,2.59,0,0,1,.23-1.09,2.3,2.3,0,0,1,.65-.84,2.9,2.9,0,0,1,1-.55,5.13,5.13,0,0,1,3.14.12,3.63,3.63,0,0,1,1.3.92l-1.28,1.29A2.47,2.47,0,0,0,231,77a2.33,2.33,0,0,0-1.12-.23,1.66,1.66,0,0,0-1,.22.73.73,0,0,0-.32.62.8.8,0,0,0,.25.65,1.74,1.74,0,0,0,.8.29l.87.14a3.71,3.71,0,0,1,2,.83,2.34,2.34,0,0,1,.66,1.78A2.88,2.88,0,0,1,233,82.4a2.4,2.4,0,0,1-.66.91,3.11,3.11,0,0,1-1.08.59A4.68,4.68,0,0,1,229.77,84.11Z"/></g></svg>