<svg id="Layer_1" data-name="Layer 1" xmlns="http://www.w3.org/2000/svg" viewBox="0 0 403.53 403.58"><defs><style>.cls-1{fill:#f9be01;}.cls-2{fill:#e54646;}.cls-3{fill:#e02128;}.cls-4{fill:#fefefe;}</style></defs><g id="wGJcXs"><path class="cls-1" d="M201.88,0A201.65,201.65,0,0,1,403.53,202c-.1,111.52-90.57,201.79-202,201.61A201.79,201.79,0,0,1,201.88,0Z"/><path class="cls-2" d="M201.89,50c83.74.39,151.67,67.58,151.6,152A151.74,151.74,0,1,1,50,201.33C50.22,117.67,117.77,50.2,201.89,50Z"/><path class="cls-3" d="M201.78,66.72C276,66.23,337.35,127.5,336.9,202.58a135.35,135.35,0,0,1-138,134.33c-70.7-1.19-134.78-60.13-132.16-140.36C69,127.19,126.65,66.46,201.78,66.72Z"/><path class="cls-4" d="M122.54,185,95.72,182.1c7-32.65,24-58.06,53.22-73.67,43.05-23,84.05-17.3,122.77,12l5.21-3.72,5.64-4.07c.39,17,.77,33.43,1.16,50.2l-47.23-16.81,12.24-9c-23.9-16.3-49.29-20.4-76.12-10.14S129.63,157.23,122.54,185Z"/><path class="cls-4" d="M226.32,305.81c-55.22,13.64-113.45-19.13-128.85-76.2H83.34l27.12-42,29.71,40.66h-14.7c6.85,18.36,18.06,32.17,34.1,42s33.65,13.26,52.57,11Z"/><path class="cls-4" d="M224.72,295.09c7.7-15.1,15.15-29.74,22.79-44.72,2.22,4.07,4.22,7.71,6.22,11.38,18.22-14.13,36.69-48.4,22.59-88.29q10.85-8.18,21.86-16.49c17.14,33.87,15.74,91.72-31.06,129.42l7.5,13.95Z"/></g></svg>